# xmcd
#
# Track frame offsets: 
#        183
#        13445
#        23650
#        34978
#        50353
#        61753
#        75300
#        92638
#        105803
#        119775
#        133473
#        147850
#        162715
#        174843
#        189080
#        205533
#        219705
#        232930
#        248280
#        264115
#        276368
#        291250
#
# Disc length: 4105 seconds
#
# Revision: 1
# Processed by: cddbd v1.5.2PL0 Copyright (c) Steve Scherf et al.
# Submitted via: ExactAudioCopy v1.3
#
DISCID=2c100716
DTITLE=Harry Roy and His Band - Greetings From You
DYEAR=1993
DGENRE=British Dance Bands
TTITLE0=Marjorie Kingsley, Harry Roy and His Band - Tangerine
TTITLE1=Marjorie Kingsley,Rnee Lister, Harry Roy and Band - Hold Your Ha
TTITLE1=ts On
TTITLE2=Oh The Pity Of It All
TTITLE3=Marjorie Kingsley,Rnee Lister, Harry Roy and Band - Humpty Dumpt
TTITLE3=y Heart
TTITLE4=Marjorie Kingsley,Rnee Lister, Harry Roy and Band - When I Love 
TTITLE4=I Love
TTITLE5=The Royalists, Harry Roy and His Band - Was It Love
TTITLE6=Marjorie Kingsley, Harry Roy and His Band - Sentimental Interlud
TTITLE6=e
TTITLE7=Renee Lister, Harry Roy and His Band - You Bring The Boogie Woog
TTITLE7=ie Out In Me
TTITLE8=Marjorie Kingsley, Harry Roy and His Band - Greetings From You
TTITLE9=A Zoot Suit
TTITLE10=Marjorie Kingsley, Harry Roy and His Band - Do You Care
TTITLE11=Marjorie Kingsley, Harry Roy and His Band - When Daddy Comes Ho
TTITLE11=me
TTITLE12=Darling Daisy
TTITLE13=Elmer's Tune
TTITLE14=Marjorie Kingsley, Harry Roy and His Band - Madelaine
TTITLE15=Renee Lister, Harry Roy and His Band - Chattanooga Choo Choo
TTITLE16=Renee Lister and The Royalists, Harry Roy and His Band - Tica Ti 
TTITLE16=Tica Ta
TTITLE17=It's Funny To Everyone But Me
TTITLE18=Marjorie Kingsley, Harry Roy and His Band - In The Middle Of A 
TTITLE18=Dance
TTITLE19=Marjorie Kingsley,Rnee Lister, Harry Roy and Band - Blues In Th
TTITLE19=e Night
TTITLE20=Marjorie Kingsley, Harry Roy and His Band - Green Eyes
TTITLE21=Marjorie Kingsley, Harry Roy and His Band - The Shrine Of St. C
TTITLE21=ecilia
EXTD=
EXTT0=
EXTT1=
EXTT2=
EXTT3=
EXTT4=
EXTT5=
EXTT6=
EXTT7=
EXTT8=
EXTT9=
EXTT10=
EXTT11=
EXTT12=
EXTT13=
EXTT14=
EXTT15=
EXTT16=
EXTT17=
EXTT18=
EXTT19=
EXTT20=
EXTT21=
PLAYORDER=
